PathFileType	4	(X/Y/Z)	C:\Users\WrightLab\Desktop\Jo\P3_33.trc
DataRate	CameraRate	NumFrames	NumMarkers	Units	OrigDataRate	OrigDataStartFrame	OrigNumFrames
100.00	100.00	       24	19	mm	100.00	81	       646
Frame#	Time	Headset_Front			Headset_Back			Headset_Left			Headset_Right			Left_Shoulder			Right_Shoulder			Sternum			C7			Left Elbow			Right Elbow			Left Wrist			Right Wrist			Left ASIS			Right ASIS			S2			Left Knee			Right Knee			Left Ankle			Right Ankle			
		X1	Y1	Z1	X2	Y2	Z2	X3	Y3	Z3	X4	Y4	Z4	X5	Y5	Z5	X6	Y6	Z6	X7	Y7	Z7	X8	Y8	Z8	X9	Y9	Z9	X10	Y10	Z10	X11	Y11	Z11	X12	Y12	Z12	X13	Y13	Z13	X14	Y14	Z14	X15	Y15	Z15	X16	Y16	Z16	X17	Y17	Z17	X18	Y18	Z18	X19	Y19	Z19	

81	0.800				-107.57915	1663.38672	1892.09814	-231.71600	1589.50427	1811.09814							40.47324	1376.66370	1941.03320				-142.92511	1431.64392	1947.77930	-412.99045	1086.32593	1739.03528	108.94331	1037.93091	2015.33984	-416.96994	963.47198	1571.14087				-218.99307	884.47583	1801.09949				-153.35011	978.90411	2031.44641	-235.01053	474.62421	1925.61169	70.89304	509.53992	1767.27039	-239.73305	161.35310	2039.80603	100.40177	172.20061	1763.58533	
82	0.810				-104.72723	1662.62646	1884.53613	-228.48003	1587.69409	1804.33850							43.48303	1375.39832	1933.63538				-139.89603	1429.84717	1940.33850	-411.93524	1087.60022	1729.39490	111.24476	1036.95386	2007.75281	-417.33286	966.52789	1562.30322				-217.46016	883.60956	1794.54382				-149.28798	977.61920	2022.15247	-233.35187	473.40265	1922.13574	73.85211	508.05542	1760.10217	-239.02483	161.87349	2038.76404	107.61327	173.08511	1737.64429	
83	0.820				-101.59309	1660.61670	1875.69775	-225.45486	1587.19629	1797.10828							46.70840	1373.28467	1925.03601				-136.54541	1428.59216	1932.68506	-410.75140	1088.16919	1720.21631	114.38358	1035.28369	1999.20300	-417.33286	968.24817	1551.61206				-215.52652	882.47565	1786.48047				-146.17061	975.54913	2014.01172	-232.00499	472.88498	1920.43481	76.10957	506.75784	1750.51257	-238.70551	162.20152	2037.84607	114.68955	174.31914	1715.86743	
84	0.830				-98.97266	1659.54407	1868.68286	-222.31807	1585.35754	1789.78284							49.63594	1372.37390	1917.02771				-133.34134	1427.20129	1925.25720	-409.08636	1088.79810	1711.00610	118.01477	1034.58948	1991.92944	-417.35614	970.64697	1541.51746				-213.71791	881.38483	1777.78784				-142.41278	974.75458	2005.56812	-230.87637	471.58490	1916.28369	79.36980	505.66028	1744.52673	-238.27530	162.74504	2036.66541	121.62061	175.64433	1696.91638	
85	0.840				-95.41817	1658.33447	1860.66602	-219.23552	1584.39600	1782.29712				-292.69092	1372.67688	1821.66028	53.21949	1370.93640	1909.31909				-129.74190	1425.53271	1918.06018	-407.55740	1089.39404	1702.05774	121.50985	1033.44800	1984.42212	-417.07425	971.75372	1531.71350	171.71138	863.46716	1844.39478	-211.74661	879.43463	1772.00500				-138.27986	972.72510	1997.44482	-228.64253	470.33145	1911.00305	82.50111	504.75064	1736.97827	-237.63573	163.25682	2035.48914	126.59800	176.74165	1678.97192	
86	0.850				-91.66821	1656.90479	1853.63269	-216.38760	1583.15869	1774.83618				-289.19067	1370.95642	1814.14685	56.75294	1369.43872	1901.18323				-126.91576	1424.79224	1911.09021	-406.42670	1089.69519	1693.24341	124.59438	1032.35327	1976.74268	-417.14798	973.31091	1521.67004	174.93657	861.37268	1837.58350	-209.67502	878.36395	1763.29602				-134.22672	971.88043	1989.30872	-226.63336	468.91440	1911.27783	85.89069	503.18161	1729.54712	-237.02039	163.66747	2034.25317	130.90575	176.80580	1663.20032	
87	0.860				-88.69969	1655.89124	1846.77356	-213.24103	1581.68445	1766.49280				-285.66577	1369.27441	1806.21753	59.96014	1368.19153	1892.50916				-123.09982	1422.18213	1902.34546	-404.84482	1089.90430	1684.84302	128.13261	1030.17688	1967.72546	-417.26556	975.21851	1511.27661	178.32713	859.23920	1832.08862	-208.16904	876.68091	1756.93396				-129.47824	970.18115	1980.81384	-225.48746	467.88586	1901.87305	89.05190	501.58792	1719.16614	-236.73262	164.26620	2033.01843	135.16946	176.99141	1651.72107	
88	0.870				-84.84065	1654.04590	1837.98267	-210.19388	1579.64343	1759.20410				-282.20349	1367.97473	1798.92957	63.69876	1367.07898	1883.76599				-120.06679	1420.98633	1894.22327	-403.16174	1090.07214	1676.71191	131.71648	1029.64258	1960.22681	-417.06491	976.75238	1502.57751	181.39702	858.08759	1822.41406	-205.46350	875.24481	1748.28760				-124.96638	968.83862	1972.25671	-223.29277	468.25635	1896.30408	91.83025	500.24985	1710.27344	-236.42065	164.90527	2031.62439	138.58272	176.00430	1641.83813	
89	0.880				-82.26103	1652.46936	1831.07190	-206.89821	1578.56946	1751.88318				-278.66898	1367.12170	1791.70496	67.62519	1366.13708	1875.12134				-116.60099	1419.45898	1886.03064	-401.77066	1089.83740	1668.03833	135.60422	1028.66772	1952.46667	-416.95132	977.16278	1494.22656	184.46480	856.16724	1816.59192	-203.37035	873.69952	1739.90454				-120.56403	967.17120	1964.55762	-221.30666	466.22989	1891.23083	95.04355	499.18906	1700.82520	-236.08807	165.75992	2030.21008	140.81963	174.02805	1632.73694	
90	0.890				-78.25399	1650.63257	1821.89148	-203.49579	1576.55688	1744.45166				-275.17075	1365.54529	1783.78442	71.52858	1365.65381	1866.46265				-112.77093	1417.72778	1878.14429	-400.08957	1089.86487	1659.75378	139.36014	1028.40308	1943.96021	-416.93314	979.09625	1484.93091	188.00594	853.79852	1810.70435	-200.34375	871.57898	1732.58252				-115.77529	965.54047	1955.68884	-219.86897	467.43396	1880.82935	97.71061	497.42474	1689.93823	-235.63008	166.65854	2028.58618	143.51559	171.69031	1626.49255	
91	0.900				-74.62537	1648.86230	1813.93713	-200.48216	1575.33240	1737.57141				-271.83453	1363.85083	1776.66248	75.19260	1363.90857	1855.75500				-109.27882	1416.97156	1870.47253	-398.34888	1090.43372	1651.70886	143.06366	1027.04480	1934.27869	-416.88849	979.55475	1475.70898	191.53908	853.10675	1801.41699	-197.93330	871.20636	1724.12781				-110.83722	963.55090	1946.57043				99.91721	496.30823	1679.74194	-235.12411	168.18835	2026.94519	145.94475	168.45296	1622.80408	
92	0.910				-71.20780	1647.73254	1806.55847	-196.93665	1573.90601	1729.87329				-267.91339	1362.60730	1768.37341	79.10788	1363.70422	1846.69055				-105.33201	1415.32458	1862.69006	-396.83997	1090.42151	1643.02612	146.89836	1026.82263	1925.92993	-416.59277	980.83673	1467.67310	195.34566	851.65820	1795.35315	-194.77019	870.03992	1715.99927				-105.95670	961.97998	1937.40833	-213.67569	464.02985	1868.07336	102.57216	494.45129	1669.24219	-234.27234	169.72049	2025.50879	147.52245	164.63263	1619.39355	
93	0.920				-67.28531	1646.37756	1798.94800	-193.74802	1573.07385	1723.34021				-264.46371	1362.64294	1762.40210	82.81211	1363.31580	1838.68457				-101.55352	1413.66553	1854.98145	-395.07919	1090.86975	1634.23218	151.40607	1026.59949	1917.50085	-417.15732	982.34357	1458.39600	199.59755	849.72961	1788.41541	-191.30121	868.92310	1706.30371				-101.00603	959.94446	1928.14612	-211.37064	462.49728	1861.83618	104.74309	493.50339	1657.64404	-233.65971	171.74323	2023.63525	149.50829	161.64168	1616.83008	
94	0.930				-63.02826	1645.13379	1790.75000	-190.15897	1571.73352	1715.63867				-260.72510	1361.10547	1755.17017	86.85471	1363.03137	1828.89661				-98.32072	1413.03467	1847.22314	-393.15479	1091.75281	1626.25330	155.93803	1026.49927	1908.28381	-416.81406	983.69330	1450.21240	203.49031	849.11469	1780.46497	-187.65742	867.35083	1697.48669				-95.94373	958.57098	1918.93689	-208.06734	461.94876	1856.27637	106.73211	491.86331	1646.84253	-232.45074	173.58736	2021.29553	149.41534	159.68623	1611.54272	
95	0.940				-59.45224	1644.44226	1783.14844	-186.95114	1571.30664	1708.31763				-257.08279	1360.13574	1747.58411	90.10842	1361.88379	1819.09045				-94.21721	1411.26392	1837.54993	-391.40884	1089.86731	1614.69214	160.14914	1026.19592	1898.56287	-416.74353	984.38354	1441.74292	207.55446	848.58984	1770.43848	-183.50000	865.42493	1687.92700				-91.08300	957.00940	1909.34509	-204.40494	460.72189	1847.45215	108.75354	490.96152	1636.69397	-231.87222	175.57263	2018.22205	149.46638	158.26190	1604.68311	
96	0.950				-55.80945	1643.04114	1774.78088	-183.55212	1570.77722	1700.61121				-253.11403	1359.29822	1739.75427	94.92129	1363.54163	1812.51868				-91.41630	1410.88354	1830.58691	-389.59747	1092.04065	1609.97400	164.83028	1025.68835	1888.51050	-416.92062	985.60675	1433.31970	212.18547	847.49872	1763.94983	-179.35310	865.16180	1678.12927				-86.03847	956.17615	1899.95605	-201.07472	459.70206	1839.41467	111.74420	489.95337	1627.57251	-231.07085	178.14828	2015.05603	149.85399	156.83722	1600.21729	
97	0.960				-51.85034	1642.62292	1764.81116	-180.51186	1570.54028	1692.58130				-249.50926	1358.88708	1732.73572	98.80000	1363.61584	1803.98279				-87.36346	1410.13831	1821.71350	-387.22537	1093.13367	1602.26172	169.73509	1026.09021	1878.06567	-416.79599	987.22455	1425.53870	216.28972	846.99768	1754.42639	-175.29469	864.13739	1669.26379				-81.25723	955.27795	1890.91150	-197.48935	458.81549	1829.62524	113.42867	490.34308	1618.54236	-229.41687	181.61877	2011.75732	149.90831	155.49565	1596.05823	
98	0.970				-48.59468	1642.48914	1755.63269	-177.51913	1569.74951	1683.48181				-246.08908	1358.90637	1724.07324	102.40702	1363.87732	1794.88025				-84.03106	1409.93787	1813.78857	-386.04776	1094.23364	1594.91431	174.44792	1026.44043	1869.31372	-416.42261	988.96832	1417.98083	220.75240	846.81097	1745.95569	-170.61668	865.07190	1656.76892				-76.86813	954.63818	1882.38831	-193.70633	458.35037	1817.75012	114.72729	490.46997	1608.63538	-228.93181	184.79306	2009.74182	149.55034	154.45825	1591.59949	
99	0.980				-44.73491	1642.73340	1746.78540	-174.45181	1570.22070	1674.83313				-242.46611	1358.84851	1716.77356	105.98708	1364.62903	1785.11475				-80.31474	1410.10266	1805.78394	-383.57169	1095.40344	1587.78711	179.77582	1027.20117	1859.04370	-416.22357	990.63470	1410.46191	225.01970	847.37622	1736.85144	-165.83907	864.43451	1649.38062				-72.51509	955.12146	1872.46606	-189.13945	457.58475	1807.46960	116.16537	490.43777	1597.82397	-226.93846	188.34824	2004.44678	150.16338	154.35713	1588.65503	
100	0.990				-40.80846	1643.17749	1737.52686	-171.13570	1570.35950	1666.53162				-239.11577	1359.43433	1708.34253	109.68774	1365.20215	1777.07068				-76.48534	1411.15588	1797.55261	-381.36792	1094.17688	1575.58179	185.39064	1028.59387	1850.86121	-416.38339	991.97833	1402.73474	229.67336	847.83282	1726.69031	-161.45883	864.38159	1641.00061				-68.07961	954.75269	1861.85034	-185.04364	456.74927	1794.19824	118.19263	490.87787	1587.46521	-224.09306	193.10413	2000.11401	151.17329	153.82233	1586.13403	
101	1.000				-37.91898	1644.35193	1727.43738	-167.84642	1570.74805	1658.77710				-235.46481	1360.11292	1700.18799	113.50911	1366.47668	1768.24634				-73.12914	1411.17615	1788.78735	-380.09546	1097.36658	1571.59119	190.84508	1028.71216	1839.94861	-415.68686	993.46191	1395.45166	233.81178	848.87891	1716.79919	-156.72638	865.93518	1629.60303				-64.37840	955.91565	1851.88965	-181.39462	456.27835	1780.50452	121.42645	490.93826	1579.59082	-221.47018	197.21202	1992.94299	151.77591	153.42328	1584.36426	
102	1.010				-34.52228	1644.58960	1717.22180	-165.42151	1571.37573	1650.55042				-231.74976	1360.87720	1692.08435	116.86890	1367.68311	1759.03564				-70.25941	1411.82104	1779.99414	-377.78928	1096.70386	1561.29382	195.00832	1031.23181	1831.70300	-416.00189	995.44635	1388.44348	238.47716	849.72443	1706.94116	-151.96936	866.87195	1619.39063				-60.48228	956.40271	1842.42004	-177.19298	454.58975	1766.77295	124.02926	490.42514	1572.33960	-217.93028	202.61050	1986.03772	151.92407	153.80255	1582.00098	
103	1.020				-31.37252	1646.07397	1709.10840	-162.93098	1572.19177	1641.49976				-228.63495	1361.76770	1683.98511	120.21398	1369.15173	1749.66260				-66.23742	1413.42883	1770.24414	-376.78955	1100.09094	1558.03625	199.28671	1033.36523	1821.11328	-416.09384	996.94281	1381.55359	243.04564	852.05890	1697.34570	-147.44809	867.59766	1610.21313				-56.49995	957.85663	1833.48938	-173.34601	453.57474	1749.98169	126.95939	490.63644	1567.17603	-213.85907	207.60660	1977.69189	152.35295	153.33174	1580.36731	
104	1.030				-28.54338	1647.37634	1697.97107	-160.27531	1572.92029	1632.91663				-225.33353	1363.12073	1675.73108	123.58424	1370.82080	1740.77344				-63.10296	1414.90210	1763.01538	-374.32373	1099.43054	1547.90930	204.48019	1033.85217	1810.36987	-416.48312	998.93243	1375.66199	248.34506	852.97992	1687.96411	-142.68434	868.99524	1600.18030				-52.75618	959.44788	1823.94568	-170.01208	452.48575	1735.13049	130.03458	491.25269	1562.47937	-208.54425	212.14845	1966.34070	153.47054	153.06384	1579.09082	
